<svg xmlns="http://www.w3.org/2000/svg" version="1.1" xmlns:xlink="http://www.w3.org/1999/xlink" xmlns:svgjs="http://svgjs.dev/svgjs" width="1000" height="750" viewBox="0 0 1000 750"><rect width="1000" height="750" fill="#ffffff"></rect><g transform="matrix(0.834,0,0,0.834,82.4948176176008,242.39342387282665)"><svg viewBox="0 0 396 126" data-background-color="#ffffff" preserveAspectRatio="xMidYMid meet" height="318" width="1000" xmlns="http://www.w3.org/2000/svg" xmlns:xlink="http://www.w3.org/1999/xlink"><g id="tight-bounds" transform="matrix(1,0,0,1,0.23987077149888592,0.0002737131949004379)"><svg viewBox="0 0 395.52 125.9991941166079" height="125.9991941166079" width="395.52"><g><svg viewBox="0 0 682.5480625779505 217.43655398127484" height="125.9991941166079" width="395.52"><g transform="matrix(1,0,0,1,0,35.02219119975271)"><svg viewBox="0 0 395.52000000000004 147.39217158176942" height="147.39217158176942" width="395.52000000000004"><g id="textblocktransform"><svg viewBox="0 0 395.52000000000004 147.39217158176942" height="147.39217158176942" width="395.52000000000004" id="textblock"><g><svg viewBox="0 0 395.52000000000004 147.39217158176942" height="147.39217158176942" width="395.52000000000004"><g transform="matrix(1,0,0,1,0,0)"><svg width="395.52000000000004" viewBox="1.5 -34.5 93.25 34.75" height="147.39217158176942" data-palette-color="#471aa0"><g class="undefined-text-0" data-fill-palette-color="primary" id="text-0"><path d="M34.05-5.85L34.05-18.85Q34.05-20.85 34.4-25.05L34.4-25.05 34.5-26.25 34-26.3Q32.85-22.05 32-19.55L32-19.55 25.35 0 18.7 0 11.7-19.55Q10.75-21.8 10-25.15L10-25.15 9.7-26.3 9.2-26.25Q9.65-21.8 9.65-18.85L9.65-18.85 9.65-5.7Q11.5-5 12.4-3.85L12.4-3.85 11.9 0 2.1 0 1.6-3.85Q2.5-5 4.35-5.7L4.35-5.7 4.35-28.8Q2.3-29.55 1.5-30.65L1.5-30.65 2-34.5 13.4-34.5 20.7-14.35Q22.1-11.05 22.5-8.3L22.5-8.3 22.65-7.45 23.35-7.45Q23.55-10.5 25.15-14.35L25.15-14.35 32.1-34.5 43.3-34.5 43.8-30.65Q43-29.55 40.95-28.8L40.95-28.8 40.95-5.9Q42.9-5.15 43.7-4.15L43.7-4.15 43.2 0 31.8 0 31.3-4.1Q32.1-5.1 34.05-5.85L34.05-5.85ZM68.15-18.7L68.15-18.7 63.95 0.25 56.25 0.25 48.25-28.65Q46.2-29.4 45.5-30.35L45.5-30.35 46-34.5 57.55-34.5 58.05-30.35Q57.2-29.35 55.35-28.7L55.35-28.7 58.9-13.95Q59.7-10.75 60.15-7.6L60.15-7.6 60.25-6.75 60.95-6.75Q61-9.7 61.9-13.85L61.9-13.85 66.4-34.15 74.05-34.15 78.55-13.95Q79.35-10.3 79.65-7.6L79.65-7.6 79.75-6.7 80.45-6.7Q80.55-9.75 81.65-13.85L81.65-13.85 85.6-28.5Q83.5-29.25 82.7-30.35L82.7-30.35 83.2-34.5 94.25-34.5 94.75-30.35Q93.8-29.15 91.4-28.4L91.4-28.4 83 0.25 75.15 0.25 71.1-18.65Q70.4-22.05 70.05-25.3L70.05-25.3 69.95-26.3 69.25-26.3Q69.05-22.85 68.15-18.7Z" fill="#471aa0" data-fill-palette-color="primary"></path></g></svg></g></svg></g></svg></g></svg></g><g transform="matrix(1,0,0,1,465.11150859667566,0)"><svg viewBox="0 0 217.43655398127484 217.43655398127484" height="217.43655398127484" width="217.43655398127484"><g><svg></svg></g><g id="icon-0"><svg viewBox="0 0 217.43655398127484 217.43655398127484" height="217.43655398127484" width="217.43655398127484"><g><path d="M0 108.718c0-60.043 48.675-108.718 108.718-108.718 60.043 0 108.718 48.675 108.719 108.718 0 60.043-48.675 108.718-108.719 108.719-60.043 0-108.718-48.675-108.718-108.719zM108.718 204.145c52.702 0 95.426-42.724 95.427-95.427 0-52.702-42.724-95.426-95.427-95.426-52.702 0-95.426 42.724-95.426 95.426 0 52.702 42.724 95.426 95.426 95.427z" data-fill-palette-color="accent" fill="#471aa0" stroke="transparent"></path></g><g transform="matrix(1,0,0,1,54.88435429733095,69.0556283531404)"><svg viewBox="0 0 107.66784538661294 79.32529727499401" height="79.32529727499401" width="107.66784538661294"><g><svg xmlns="http://www.w3.org/2000/svg" xmlns:xlink="http://www.w3.org/1999/xlink" version="1.1" x="0" y="0" viewBox="1.4695369005203247 14.244647026062012 97.06063842773438 71.51033782958984" enable-background="new 0 0 100 100" xml:space="preserve" height="79.32529727499401" width="107.66784538661294" class="icon-s-0" data-fill-palette-color="accent" id="s-0"><g fill="#471aa0" data-fill-palette-color="accent"><path fill="none" d="M18.229 41.867c0.58-0.289 1.142-1.4 0.747-1.541C17.482 39.794 17.803 42.079 18.229 41.867z"></path><path fill="#471aa0" d="M98.52 34.364c0.174-2.323-1.835-6.938-9.784-9.646-4.125-1.405-6.629 2.236-7.854 2.342-3.307 0.291-21.566-12.817-40.926-11.18-2.199 0.186-11.382-2.226-21.464-1.498C8.947 15.072 2.356 24.25 1.78 28.438c-2.908 21.144 15.458 20.8 19.844 17.502 5.396-4.061 1.762-9.361-0.41-9.962-5.392-1.493-8.087 3.69-4.977 6.636-1.792-0.413-6.383-1.426-7.773-6.527-1.241-4.548 2.949-11.34 7.441-12.816 4.823-1.585 10.322 0.892 12.609 1.446-2.067 3.721 1.516 14.194 1.792 16.124 0.275 1.93-0.138 1.791-0.138 2.618s2.136 7.373 1.86 9.579c-0.276 2.204-1.961 3-2.788 4.103s0.445 2.994 1.204 3.683c-0.138 2.825-1.761 8.512-1.178 9.581 0.764 1.401 2.682 4.687 3.175 6.61 0.689 2.688 4.548 9.648 5.237 7.443 0.827 1.446 1.792 1.791 1.86 0.481 1.309 1.585 1.93 0.815 0.964-2.342 0.689 0.551 1.241 0.688 1.241-0.69 0-1.356-1.588-3.479-1.447-4.96 0.138-1.448 5.788-1.103 5.995-2.067 0.147-0.686-0.827-0.486-2.143-0.794-0.967-0.227-2.405 0.381-3.783-0.31-1.603-0.801-3.239-0.344-4.204-1.377-0.926-0.992 0.139-3.721 1.034-4.823 0.744-0.095 1.183 0.443 1.653 0.964 0.689 0.765 1.561 3.061 1.929 2.963 0.318-0.084 0.159-1.146-0.068-2.215-0.218-1.025 1.122-0.495 2.273 0.493 1.447 1.239 1.654 1.997 1.517 2.824-0.139 0.827 0.826 0.689 0.826-0.068 0-0.759 0.078 0.95 0.768 0.674 0.688-0.275 0.128-1.087-0.423-2.258-0.589-1.254-0.471-2.033-0.896-2.413-1.309-1.171-1.791-2.617-2.618-3.582-0.827-0.966-1.17-0.758-3.376-2.137 0.561-2.538 1.554-5.826 2.273-6.132 2.274-0.966 10.386-9.206 11.146-10.786 1.036-2.159 1.119-3.133 1.119-5.2 1.172 2.205 1.792 2.756 2.55 3.238-1.378 0.964-2.57 1.993-2.55 2.963 0.069 3.326-2.167 9.085-2.787 11.152-0.621 2.067 2.319 8.87 2.926 9.657 0.343 0.444 0.551 2.983 1.171 4.361 0.576 1.283-1.76 3.979-1.171 5.009 0.275 0.483 1.378-0.826 2.205-2.343 0.826-1.515-2.022 4.948-0.896 4.41 1.585-0.758 1.397 0.352 1.998 0.276 0.388-0.049 0.344-0.174 0.841-0.943 0.299 0.323 0.748 0.115 1.462-0.377 0.324-0.225 1.36-1.832 1.222-2.796-0.137-0.965 0.242-1.385 0.821-3.216 0.206-0.65-0.258-1.738-0.671-3.529-0.414-1.791 1.7-13.875 3.078-15.46 1.144-1.315 9.646-1.86 11.714-3.79 0.895 1.377 1.309 4.41 1.722 6.476 0.414 2.068 6.271 11.162 6.959 12.403 0.688 1.24 3.845 2.147 5.237 2.963 0.876 0.512 0.896 1.998 2.756 2.894 1.495 0.72 2.618 3.859 3.308 3.307 0.688-0.551 0.413 0.966 0.964 1.241 0.552 0.274 0.994-0.758 1.654-1.517 0.357-0.412 0.343-1.333 0.48-2.574 0.138-1.24-0.073-3.176-1.037-4.83-0.965-1.653-2.319-0.635-4.386-1.6-2.068-0.965-7.306-16.266-7.874-17.73-0.255-0.659 1.244-4.253 1.24-5.306 1.034 0.482 3.445 1.033 6.408 1.103 1.973 0.046 4.709-3.08 4.938-4.808 0.183-1.39-1.515-2.536-1.339-3.311C96.515 36.92 98.315 37.107 98.52 34.364zM18.977 40.326c0.395 0.141-0.167 1.252-0.747 1.541C17.803 42.079 17.482 39.794 18.977 40.326zM97.305 41.269c-0.105 0.127-0.252 1.088-0.299 0.906-0.282-1.09-1.748-0.745-1.694-0.225 0.121 1.171 1.372 0.969 1.291 1.09-0.431 0.649-1.35 1.942-2.784 2.422-0.86 0.288-3.89-0.032-4.819-0.135-0.57-0.063-2.784-0.251-3.04-0.938-0.159-0.428 2.403-0.921 4.147-2.103 1.01-0.684 2.017-2.045 2.757-2.244 0.165-0.045 2.287-0.232 2.448-1.362 0.063-0.445 0.888-1.05 0.752 0C96.007 39.11 97.718 40.776 97.305 41.269zM93.816 38.185c-0.941 0.472-1.283 1.236-1.465 1.46-0.833 1.024-2.842 2.813-6.551 3.982-1.48 0.467-3.421-0.318-4.951-0.062-0.756 0.126-3.122 2.007-4.775 4.349-1.654 2.343-10.49 3.125-13.798 4.365-3.307 1.24 0.12 15.185-5.846 14.874-2.947-0.153-6.058-7.015-5.215-9.039 3.882-9.33 1.979-11.476 4.056-12.98 4.517-3.272 8.063-5.835 5.676-5.352-8.042 1.628-13.911-3.041-17.969-8.161-0.685-0.863-1.923-1.667-1.509 1.811 0.184 1.548 2.342 15.615 2.089 16.448-1.392 4.575-3.755 5.508-7.376 17.31-0.667 2.175-5.489 3.864-6.058 3.478-1.244-0.847 3.998-18.232 2.839-22.58-2.2-8.251-5.153-19.052-3.621-22.681 0.491-1.163 2.43-7.077 10.61-8.544 14.602-2.618 39 11.162 40.239 11.575 1.241 0.414 2.82-3.079 7.028-3.169 2.707-0.058 11.311 4.567 10.473 9.646C97.356 36.96 96.298 36.945 93.816 38.185z" data-fill-palette-color="accent"></path><path fill="#471aa0" d="M78.559 34.468c-0.536 2.414 3.494 4.448 5.097 3.487-5.9-2.951 1.206-5.142 2.146-7.288C83.923 30.319 79.096 32.054 78.559 34.468z" data-fill-palette-color="accent"></path></g></svg></g></svg></g></svg></g></svg></g></svg></g><defs></defs></svg><rect width="395.52" height="125.9991941166079" fill="none" stroke="none" visibility="hidden"></rect></g></svg></g></svg>